<svg xmlns="http://www.w3.org/2000/svg" width="64" height="64" viewBox="0 0 64 64"><defs><linearGradient id="in" x1="0" y1="0" x2="0.6" y2="1"><stop offset="0" stop-color="#2E5269"></stop><stop offset="1" stop-color="#1A303E"></stop></linearGradient></defs>
<polygon points="32,2 60,18 60,46 32,62 4,46 4,18" fill="#3E6E8C"></polygon>
<polygon points="32,8 55,22 55,42 32,56 9,42 9,22" fill="url(#in)"></polygon>
<polygon points="32,9 55,22 53,23 32,11 11,23 9,22" fill="rgba(255,255,255,0.25)"></polygon>
<polyline points="22,28 32,23 42,28" fill="none" stroke="#CFE2EE" stroke-width="3.5"></polyline><polyline points="22,36 32,31 42,36" fill="none" stroke="#CFE2EE" stroke-width="3.5"></polyline><polyline points="22,44 32,39 42,44" fill="none" stroke="#CFE2EE" stroke-width="3.5"></polyline>
</svg>