<svg xmlns="http://www.w3.org/2000/svg" width="400" height="225" viewBox="0 0 400 225" preserveAspectRatio="xMidYMid slice"><defs>
<linearGradient id="sky" x1="0" y1="0" x2="0" y2="1"><stop offset="0" stop-color="#2b3d4a"/><stop offset="0.5" stop-color="#16212a"/><stop offset="1" stop-color="#0a0f13"/></linearGradient>
<radialGradient id="warm" cx="0.5" cy="0.5" r="0.5"><stop offset="0" stop-color="#ffc98c" stop-opacity="0.85"/><stop offset="0.45" stop-color="#b96a1f" stop-opacity="0.35"/><stop offset="1" stop-color="#b96a1f" stop-opacity="0"/></radialGradient>
<radialGradient id="cool" cx="0.5" cy="0.5" r="0.5"><stop offset="0" stop-color="#a9c1ce" stop-opacity="0.5"/><stop offset="1" stop-color="#a9c1ce" stop-opacity="0"/></radialGradient>
<radialGradient id="vig" cx="0.5" cy="0.45" r="0.75"><stop offset="0.55" stop-color="#000" stop-opacity="0"/><stop offset="1" stop-color="#05080b" stop-opacity="0.62"/></radialGradient>
<filter id="b2"><feGaussianBlur stdDeviation="1.1"/></filter>
<filter id="b4"><feGaussianBlur stdDeviation="4"/></filter>
<filter id="b8" x="-30%" y="-30%" width="160%" height="160%"><feGaussianBlur stdDeviation="8"/></filter>
<filter id="b14" x="-40%" y="-40%" width="180%" height="180%"><feGaussianBlur stdDeviation="14"/></filter>
<filter id="grain" x="0" y="0" width="100%" height="100%"><feTurbulence type="fractalNoise" baseFrequency="0.9" numOctaves="2" stitchTiles="stitch"/><feColorMatrix type="matrix" values="0 0 0 0 1  0 0 0 0 1  0 0 0 0 1  0 0 0 0.06 0"/></filter>
</defs>
<rect width="400" height="225" fill="url(#sky)"/>
<ellipse cx="200" cy="60" rx="190" ry="80" fill="url(#cool)" opacity="0.45" filter="url(#b14)"/>
<ellipse cx="330" cy="120" rx="130" ry="70" fill="url(#warm)" opacity="0.5" filter="url(#b14)"/>
<g filter="url(#b2)"><polygon points="0,132 400,120 400,225 0,225" fill="#0d141b"/></g>
<g stroke="#51697a" stroke-width="1.4" opacity="0.75" filter="url(#b2)">
<line x1="0" y1="225" x2="150" y2="128"/><line x1="100" y1="225" x2="190" y2="128"/><line x1="210" y1="225" x2="235" y2="127"/><line x1="320" y1="225" x2="280" y2="126"/><line x1="400" y1="205" x2="325" y2="125"/>
</g>
<g filter="url(#b2)">
<rect x="60" y="96" width="26" height="36" fill="#0a0f13"/><rect x="63" y="99" width="20" height="14" fill="#16212a"/>
<rect x="168" y="90" width="28" height="40" fill="#0a0f13"/><rect x="171" y="93" width="22" height="16" fill="#16212a"/>
<rect x="282" y="94" width="26" height="34" fill="#0a0f13"/><rect x="285" y="97" width="20" height="13" fill="#16212a"/>
</g>
<g stroke="#ff9c1e" stroke-width="1.2" fill="none" opacity="0.8" filter="url(#b2)">
<circle cx="182" cy="103" r="14"/><line x1="182" y1="85" x2="182" y2="93"/><line x1="182" y1="113" x2="182" y2="121"/><line x1="164" y1="103" x2="172" y2="103"/><line x1="192" y1="103" x2="200" y2="103"/>
</g>
<g fill="#ff9c1e" opacity="0.75" filter="url(#b2)">
<rect x="64" y="118" width="18" height="3"/><rect x="172" y="118" width="10" height="3"/><rect x="286" y="116" width="14" height="3"/>
</g>
<g stroke="#a9c1ce" stroke-width="0.8" opacity="0.35"><path d="M20,40 h56 M20,48 h38 M20,56 h47"/><path d="M330,44 h50 M330,52 h34"/></g>
<circle cx="360" cy="190" r="5" fill="#ffc98c" opacity="0.5" filter="url(#b4)"/>
<circle cx="40" cy="180" r="4" fill="#a9c1ce" opacity="0.35" filter="url(#b4)"/>
<circle cx="230" cy="205" r="3" fill="#ff9c1e" opacity="0.4" filter="url(#b4)"/>
<g opacity="0.05"><rect x="0" y="0" width="400" height="1" fill="#a9c1ce"/><rect x="0" y="4" width="400" height="1" fill="#a9c1ce"/><rect x="0" y="8" width="400" height="1" fill="#a9c1ce"/><rect x="0" y="12" width="400" height="1" fill="#a9c1ce"/><rect x="0" y="16" width="400" height="1" fill="#a9c1ce"/><rect x="0" y="20" width="400" height="1" fill="#a9c1ce"/><rect x="0" y="24" width="400" height="1" fill="#a9c1ce"/><rect x="0" y="28" width="400" height="1" fill="#a9c1ce"/><rect x="0" y="32" width="400" height="1" fill="#a9c1ce"/><rect x="0" y="36" width="400" height="1" fill="#a9c1ce"/><rect x="0" y="40" width="400" height="1" fill="#a9c1ce"/><rect x="0" y="44" width="400" height="1" fill="#a9c1ce"/><rect x="0" y="48" width="400" height="1" fill="#a9c1ce"/><rect x="0" y="52" width="400" height="1" fill="#a9c1ce"/><rect x="0" y="56" width="400" height="1" fill="#a9c1ce"/><rect x="0" y="60" width="400" height="1" fill="#a9c1ce"/><rect x="0" y="64" width="400" height="1" fill="#a9c1ce"/><rect x="0" y="68" width="400" height="1" fill="#a9c1ce"/><rect x="0" y="72" width="400" height="1" fill="#a9c1ce"/><rect x="0" y="76" width="400" height="1" fill="#a9c1ce"/><rect x="0" y="80" width="400" height="1" fill="#a9c1ce"/><rect x="0" y="84" width="400" height="1" fill="#a9c1ce"/><rect x="0" y="88" width="400" height="1" fill="#a9c1ce"/><rect x="0" y="92" width="400" height="1" fill="#a9c1ce"/><rect x="0" y="96" width="400" height="1" fill="#a9c1ce"/><rect x="0" y="100" width="400" height="1" fill="#a9c1ce"/><rect x="0" y="104" width="400" height="1" fill="#a9c1ce"/><rect x="0" y="108" width="400" height="1" fill="#a9c1ce"/><rect x="0" y="112" width="400" height="1" fill="#a9c1ce"/><rect x="0" y="116" width="400" height="1" fill="#a9c1ce"/><rect x="0" y="120" width="400" height="1" fill="#a9c1ce"/><rect x="0" y="124" width="400" height="1" fill="#a9c1ce"/><rect x="0" y="128" width="400" height="1" fill="#a9c1ce"/><rect x="0" y="132" width="400" height="1" fill="#a9c1ce"/><rect x="0" y="136" width="400" height="1" fill="#a9c1ce"/><rect x="0" y="140" width="400" height="1" fill="#a9c1ce"/><rect x="0" y="144" width="400" height="1" fill="#a9c1ce"/><rect x="0" y="148" width="400" height="1" fill="#a9c1ce"/><rect x="0" y="152" width="400" height="1" fill="#a9c1ce"/><rect x="0" y="156" width="400" height="1" fill="#a9c1ce"/><rect x="0" y="160" width="400" height="1" fill="#a9c1ce"/><rect x="0" y="164" width="400" height="1" fill="#a9c1ce"/><rect x="0" y="168" width="400" height="1" fill="#a9c1ce"/><rect x="0" y="172" width="400" height="1" fill="#a9c1ce"/><rect x="0" y="176" width="400" height="1" fill="#a9c1ce"/><rect x="0" y="180" width="400" height="1" fill="#a9c1ce"/><rect x="0" y="184" width="400" height="1" fill="#a9c1ce"/><rect x="0" y="188" width="400" height="1" fill="#a9c1ce"/><rect x="0" y="192" width="400" height="1" fill="#a9c1ce"/><rect x="0" y="196" width="400" height="1" fill="#a9c1ce"/><rect x="0" y="200" width="400" height="1" fill="#a9c1ce"/><rect x="0" y="204" width="400" height="1" fill="#a9c1ce"/><rect x="0" y="208" width="400" height="1" fill="#a9c1ce"/><rect x="0" y="212" width="400" height="1" fill="#a9c1ce"/><rect x="0" y="216" width="400" height="1" fill="#a9c1ce"/><rect x="0" y="220" width="400" height="1" fill="#a9c1ce"/><rect x="0" y="224" width="400" height="1" fill="#a9c1ce"/></g>
<rect width="400" height="225" filter="url(#grain)" opacity="0.55"/>
<rect width="400" height="225" fill="url(#vig)"/>
</svg>