<svg xmlns="http://www.w3.org/2000/svg" width="400" height="225" viewBox="0 0 400 225" preserveAspectRatio="xMidYMid slice"><defs>
<linearGradient id="sky" x1="0" y1="0" x2="0" y2="1"><stop offset="0" stop-color="#2b3d4a"/><stop offset="0.5" stop-color="#16212a"/><stop offset="1" stop-color="#0a0f13"/></linearGradient>
<radialGradient id="warm" cx="0.5" cy="0.5" r="0.5"><stop offset="0" stop-color="#ffc98c" stop-opacity="0.85"/><stop offset="0.45" stop-color="#b96a1f" stop-opacity="0.35"/><stop offset="1" stop-color="#b96a1f" stop-opacity="0"/></radialGradient>
<radialGradient id="cool" cx="0.5" cy="0.5" r="0.5"><stop offset="0" stop-color="#a9c1ce" stop-opacity="0.5"/><stop offset="1" stop-color="#a9c1ce" stop-opacity="0"/></radialGradient>
<radialGradient id="vig" cx="0.5" cy="0.45" r="0.75"><stop offset="0.55" stop-color="#000" stop-opacity="0"/><stop offset="1" stop-color="#05080b" stop-opacity="0.62"/></radialGradient>
<filter id="b2"><feGaussianBlur stdDeviation="1.1"/></filter>
<filter id="b4"><feGaussianBlur stdDeviation="4"/></filter>
<filter id="b8" x="-30%" y="-30%" width="160%" height="160%"><feGaussianBlur stdDeviation="8"/></filter>
<filter id="b14" x="-40%" y="-40%" width="180%" height="180%"><feGaussianBlur stdDeviation="14"/></filter>
<filter id="grain" x="0" y="0" width="100%" height="100%"><feTurbulence type="fractalNoise" baseFrequency="0.9" numOctaves="2" stitchTiles="stitch"/><feColorMatrix type="matrix" values="0 0 0 0 1  0 0 0 0 1  0 0 0 0 1  0 0 0 0.06 0"/></filter>
</defs>
<rect width="400" height="225" fill="url(#sky)"/>
<ellipse cx="205" cy="45" rx="150" ry="80" fill="url(#cool)" opacity="0.5" filter="url(#b14)"/>
<ellipse cx="205" cy="150" rx="120" ry="70" fill="url(#warm)" opacity="0.55" filter="url(#b14)"/>
<g filter="url(#b2)">
<rect x="150" y="38" width="110" height="187" fill="#0a0f13"/>
<rect x="156" y="38" width="98" height="187" fill="#0e161d"/>
<polygon points="150,38 205,22 260,38 260,46 150,46" fill="#0a0f13"/>
</g>
<g filter="url(#b2)">
<rect x="170" y="70" width="26" height="17" fill="#ffc98c" opacity="0.9"/>
<rect x="206" y="88" width="34" height="22" fill="#ff9c1e" opacity="0.75"/>
<rect x="172" y="118" width="20" height="13" fill="#51697a" opacity="0.8"/>
<rect x="204" y="140" width="28" height="18" fill="#ffc98c" opacity="0.6"/>
<rect x="176" y="168" width="30" height="19" fill="#ff9c1e" opacity="0.5"/>
</g>
<g fill="#0a0f13" opacity="0.9" filter="url(#b4)">
<rect x="34" y="120" width="10" height="105"/><rect x="6" y="132" width="66" height="7"/>
<rect x="352" y="104" width="9" height="121"/><rect x="330" y="115" width="62" height="6"/>
<polygon points="60,225 96,150 108,225"/><polygon points="300,225 316,164 336,225"/>
</g>
<line x1="150" y1="38" x2="150" y2="225" stroke="#e07f19" stroke-width="1.4" opacity="0.8" filter="url(#b2)"/>
<circle cx="120" cy="200" r="5" fill="#ffc98c" opacity="0.5" filter="url(#b4)"/>
<circle cx="290" cy="196" r="4" fill="#ff9c1e" opacity="0.4" filter="url(#b4)"/>
<circle cx="48" cy="70" r="4" fill="#a9c1ce" opacity="0.4" filter="url(#b4)"/>
<circle cx="372" cy="60" r="3" fill="#a9c1ce" opacity="0.35" filter="url(#b4)"/>
<g opacity="0.05"><rect x="0" y="0" width="400" height="1" fill="#a9c1ce"/><rect x="0" y="4" width="400" height="1" fill="#a9c1ce"/><rect x="0" y="8" width="400" height="1" fill="#a9c1ce"/><rect x="0" y="12" width="400" height="1" fill="#a9c1ce"/><rect x="0" y="16" width="400" height="1" fill="#a9c1ce"/><rect x="0" y="20" width="400" height="1" fill="#a9c1ce"/><rect x="0" y="24" width="400" height="1" fill="#a9c1ce"/><rect x="0" y="28" width="400" height="1" fill="#a9c1ce"/><rect x="0" y="32" width="400" height="1" fill="#a9c1ce"/><rect x="0" y="36" width="400" height="1" fill="#a9c1ce"/><rect x="0" y="40" width="400" height="1" fill="#a9c1ce"/><rect x="0" y="44" width="400" height="1" fill="#a9c1ce"/><rect x="0" y="48" width="400" height="1" fill="#a9c1ce"/><rect x="0" y="52" width="400" height="1" fill="#a9c1ce"/><rect x="0" y="56" width="400" height="1" fill="#a9c1ce"/><rect x="0" y="60" width="400" height="1" fill="#a9c1ce"/><rect x="0" y="64" width="400" height="1" fill="#a9c1ce"/><rect x="0" y="68" width="400" height="1" fill="#a9c1ce"/><rect x="0" y="72" width="400" height="1" fill="#a9c1ce"/><rect x="0" y="76" width="400" height="1" fill="#a9c1ce"/><rect x="0" y="80" width="400" height="1" fill="#a9c1ce"/><rect x="0" y="84" width="400" height="1" fill="#a9c1ce"/><rect x="0" y="88" width="400" height="1" fill="#a9c1ce"/><rect x="0" y="92" width="400" height="1" fill="#a9c1ce"/><rect x="0" y="96" width="400" height="1" fill="#a9c1ce"/><rect x="0" y="100" width="400" height="1" fill="#a9c1ce"/><rect x="0" y="104" width="400" height="1" fill="#a9c1ce"/><rect x="0" y="108" width="400" height="1" fill="#a9c1ce"/><rect x="0" y="112" width="400" height="1" fill="#a9c1ce"/><rect x="0" y="116" width="400" height="1" fill="#a9c1ce"/><rect x="0" y="120" width="400" height="1" fill="#a9c1ce"/><rect x="0" y="124" width="400" height="1" fill="#a9c1ce"/><rect x="0" y="128" width="400" height="1" fill="#a9c1ce"/><rect x="0" y="132" width="400" height="1" fill="#a9c1ce"/><rect x="0" y="136" width="400" height="1" fill="#a9c1ce"/><rect x="0" y="140" width="400" height="1" fill="#a9c1ce"/><rect x="0" y="144" width="400" height="1" fill="#a9c1ce"/><rect x="0" y="148" width="400" height="1" fill="#a9c1ce"/><rect x="0" y="152" width="400" height="1" fill="#a9c1ce"/><rect x="0" y="156" width="400" height="1" fill="#a9c1ce"/><rect x="0" y="160" width="400" height="1" fill="#a9c1ce"/><rect x="0" y="164" width="400" height="1" fill="#a9c1ce"/><rect x="0" y="168" width="400" height="1" fill="#a9c1ce"/><rect x="0" y="172" width="400" height="1" fill="#a9c1ce"/><rect x="0" y="176" width="400" height="1" fill="#a9c1ce"/><rect x="0" y="180" width="400" height="1" fill="#a9c1ce"/><rect x="0" y="184" width="400" height="1" fill="#a9c1ce"/><rect x="0" y="188" width="400" height="1" fill="#a9c1ce"/><rect x="0" y="192" width="400" height="1" fill="#a9c1ce"/><rect x="0" y="196" width="400" height="1" fill="#a9c1ce"/><rect x="0" y="200" width="400" height="1" fill="#a9c1ce"/><rect x="0" y="204" width="400" height="1" fill="#a9c1ce"/><rect x="0" y="208" width="400" height="1" fill="#a9c1ce"/><rect x="0" y="212" width="400" height="1" fill="#a9c1ce"/><rect x="0" y="216" width="400" height="1" fill="#a9c1ce"/><rect x="0" y="220" width="400" height="1" fill="#a9c1ce"/><rect x="0" y="224" width="400" height="1" fill="#a9c1ce"/></g>
<rect width="400" height="225" filter="url(#grain)" opacity="0.55"/>
<rect width="400" height="225" fill="url(#vig)"/>
</svg>